<?xml version="1.0" encoding="iso-8859-1"?>
<!-- Generator: Adobe Illustrator 19.0.0, SVG Export Plug-In . SVG Version: 6.00 Build 0)  -->
<svg fill="#FFAD00" version="1.1" id="Capa_1" xmlns="http://www.w3.org/2000/svg" xmlns:xlink="http://www.w3.org/1999/xlink" x="0px" y="0px"
	 viewBox="0 0 511.996 511.996" style="enable-background:new 0 0 511.996 511.996;" xml:space="preserve">
<g>
	<g>
		<path d="M510.398,346.387c-1.941-3.136-5.376-5.056-9.067-5.056H10.665c-3.691,0-7.125,1.941-9.067,5.077
			c-1.941,3.136-2.133,7.061-0.469,10.368c14.976,29.952,45.077,48.555,78.571,48.555h352.597c33.493,0,63.595-18.603,78.571-48.576
			C512.531,353.47,512.339,349.523,510.398,346.387z M432.297,383.998H79.699c-18.965,0-36.501-7.872-48.875-21.333h450.347
			C468.777,376.126,451.262,383.998,432.297,383.998z"/>
	</g>
</g>
<g>
	<g>
		<path d="M255.977,201.961c-0.405-5.888-5.717-10.304-11.349-9.941c-68.245,4.523-126.955,49.045-149.611,113.472
			c-1.941,5.568,0.981,11.648,6.528,13.611c1.173,0.405,2.368,0.597,3.541,0.597c4.395,0,8.533-2.752,10.069-7.125
			c19.819-56.363,71.211-95.317,130.88-99.264C251.923,212.926,256.361,207.827,255.977,201.961z"/>
	</g>
</g>
<g>
	<g>
		<path d="M469.033,351.443c-5.867-113.344-99.435-202.112-213.035-202.112c-113.728,0-207.317,88.896-213.056,202.368
			c-0.299,5.888,4.224,10.901,10.112,11.2c0.192,0,0.363,0,0.555,0c5.632,0,10.347-4.416,10.645-10.112
			c5.163-102.123,89.387-182.123,191.744-182.123c102.229,0,186.453,79.893,191.723,181.867c0.299,5.888,5.312,10.304,11.2,10.112
			C464.809,362.345,469.331,357.331,469.033,351.443z"/>
	</g>
</g>
<g>
	<g>
		<path d="M255.998,106.665c-17.643,0-32,14.357-32,32c0,17.643,14.357,32,32,32s32-14.357,32-32
			C287.998,121.022,273.641,106.665,255.998,106.665z M255.998,149.331c-5.888,0-10.667-4.779-10.667-10.667
			s4.779-10.667,10.667-10.667c5.888,0,10.667,4.779,10.667,10.667S261.886,149.331,255.998,149.331z"/>
	</g>
</g>
<g>
</g>
<g>
</g>
<g>
</g>
<g>
</g>
<g>
</g>
<g>
</g>
<g>
</g>
<g>
</g>
<g>
</g>
<g>
</g>
<g>
</g>
<g>
</g>
<g>
</g>
<g>
</g>
<g>
</g>
</svg>
